<svg width="739" height="524" viewBox="0 0 739 524" xmlns="http://www.w3.org/2000/svg"><title>BE120FDC-F951-49E8-B821-9D6D47787824</title><g fill="none" fill-rule="evenodd"><path d="M352.13 290.5l-4.62 4.73c.325-.497.7-.96 1.12-1.38l4.62-4.73a8.63 8.63 0 0 0-1.12 1.38M401.69 412.96l-4.62 4.73a82.028 82.028 0 0 1-3.28 3.16l4.62-4.73c1.14-1 2.22-2.08 3.28-3.16M388.93 422.06a27 27 0 0 1-11.44 2.53 30 30 0 0 1-10.26-2.12c-3.75-1.21-6.91-3.69-10.09-7.37-3.15-3.41-5.75-8.65-7.73-14.85-1.98-6.2-3.11-14.56-3.31-24.47-.06-3.11.19-6.19.13-9.3l-4.62 4.73c.06 3.11-.19 6.19-.13 9.3.2 9.91 1.31 18.29 3.31 24.47s4.57 11.44 7.73 14.85c3.18 3.68 6.34 6.16 10.09 7.37a30 30 0 0 0 10.26 2.12 27 27 0 0 0 11.44-2.53 60 60 0 0 0 9.47-5.94l4.62-4.73a60 60 0 0 1-9.47 5.94zM297.6 413.55a45.16 45.16 0 0 1-13.78 8.76 41 41 0 0 1-16.68 3.2 51 51 0 0 1-24-5.44 58.09 58.09 0 0 1-18.32-15.1 70.29 70.29 0 0 1-11.92-22.28 94.57 94.57 0 0 1-2.26-50.2 76.63 76.63 0 0 1 7-18.63 71 71 0 0 1 9.65-14.33c.933-1.04 1.867-2.04 2.8-3l-4.62 4.73a88.142 88.142 0 0 0-2.8 3 71 71 0 0 0-9.65 14.33 76.63 76.63 0 0 0-7 18.63 94.57 94.57 0 0 0 2.26 50.2 70.29 70.29 0 0 0 11.92 22.28 58.09 58.09 0 0 0 18.29 15.09 51 51 0 0 0 24 5.44 41 41 0 0 0 16.68-3.2 45.16 45.16 0 0 0 13.78-8.75c.62-.587 1.233-1.19 1.84-1.81l4.62-4.73a46.34 46.34 0 0 1-1.81 1.81z" fill="#509FCE" fill-rule="nonzero"/><path d="M271.64 300.39l.35-.1-.35.1zM272.88 300.08l.36-.06-.36.06zM267.89 302.52l.31-.25-.31.25zM269.01 301.68l.33-.22-.33.22zM298.44 363.96c0-2 0-3.76-.08-5.34.02 1.84.04 3.62.08 5.34zM293.82 367.27c0-2.69-.05-5.16-.27-9.29-.66-8.35-1.23-15.65-2.59-22.15a91.92 91.92 0 0 0-5.3-16.72 29.72 29.72 0 0 0-7.35-10.81c-2.84-2.45-5.67-3.67-8.46-3.66a9.74 9.74 0 0 0-5.21 1.58c-2.67 4.35-3.77 10.22-3.62 17.63a58.61 58.61 0 0 0 3.17 18.58 57 57 0 0 0 8 14.83 42.26 42.26 0 0 0 11.39 10.79 46.74 46.74 0 0 0 9.84 4.64c0-.49.1-1 .14-1.46.13-.84.26-3.1.26-3.96z"/><path d="M298.24 353.04a157.27 157.27 0 0 0-2.65-21.91 91.93 91.93 0 0 0-5.3-16.72 29.73 29.73 0 0 0-7.35-10.81c-2.84-2.45-5.67-3.67-8.46-3.66a9.39 9.39 0 0 0-1.24.1l-.36.06c-.3.053-.6.123-.9.21l-.35.1c-.4.125-.79.275-1.17.45a10.93 10.93 0 0 0-1.11.62l-.33.22c-.273.18-.543.377-.81.59l-.31.25c-.35.3-.7.62-1 1a18.88 18.88 0 0 0-2.15 2.67v.07a9.74 9.74 0 0 1 5.21-1.58c2.79 0 5.62 1.2 8.46 3.66a29.72 29.72 0 0 1 7.25 10.77 91.92 91.92 0 0 1 5.3 16.72c1.37 6.5 1.93 13.8 2.59 22.15.22 4.12.27 6.59.27 9.29-.06.85-.15 3.12-.21 4 0 .49-.1 1-.14 1.46 1.3.44 2.61.85 3.92 1.18a67.36 67.36 0 0 0 1-9.92c0-1.72-.05-3.5-.08-5.34-.03-1.84-.05-3.73-.08-5.63z" fill="#509FCE" fill-rule="nonzero"/><path d="M298.44 363.96a67.36 67.36 0 0 1-1 9.92 64.34 64.34 0 0 0 1-9.92zM266.82 303.48c.34-.35.69-.67 1-1-.28.34-.63.65-1 1zM268.2 302.27c.267-.213.537-.41.81-.59-.273.187-.543.383-.81.59zM298.35 358.61c0-1.81-.06-3.68-.12-5.63a147.68 147.68 0 0 0-2.64-21.85 157.27 157.27 0 0 1 2.64 21.94c.04 1.87.08 3.61.12 5.54zM273.24 300.02z" fill="#0B527D" fill-rule="nonzero"/><path d="M256.25 287.61c-.68.51-1.34 1.06-2 1.63.66-.57 1.32-1.11 2-1.63zM252.27 291.13c.46-.46.927-.907 1.4-1.34-.473.413-.94.86-1.4 1.34zM298.24 352.98a147.68 147.68 0 0 0-2.65-21.85 91.93 91.93 0 0 0-5.3-16.72 29.73 29.73 0 0 0-7.35-10.81c-2.84-2.45-5.67-3.67-8.46-3.66a9.41 9.41 0 0 0-1.24.1l-.36.06c-.3.053-.6.123-.9.21l-.35.1c-.4.125-.79.276-1.17.45a11 11 0 0 0-1.11.62l-.33.22c-.273.18-.543.377-.81.59l-.31.25c-.35.3-.7.61-1 1a18.88 18.88 0 0 0-2.15 2.67v.07c-2.67 4.35-3.77 10.22-3.62 17.63a58.61 58.61 0 0 0 3.17 18.58 57 57 0 0 0 8 14.83 42.26 42.26 0 0 0 11.39 10.79 46.74 46.74 0 0 0 9.84 4.64c1.3.44 2.61.85 3.92 1.18a64.34 64.34 0 0 0 1-9.92c0-2 0-3.76-.08-5.34-.04-1.86-.07-3.74-.13-5.69z"/><path d="M253.67 289.76c-.473.427-.94.873-1.4 1.34-.9.9-1.77 1.84-2.62 2.86.65-.56 1.31-1.11 2-1.62l4.62-4.73c-.68.51-1.34 1.06-2 1.63l-.6.52z" fill="#509FCE" fill-rule="nonzero"/><path d="M298.24 352.98a147.68 147.68 0 0 0-2.65-21.85 91.93 91.93 0 0 0-5.3-16.72 29.73 29.73 0 0 0-7.35-10.81c-2.84-2.45-5.67-3.67-8.46-3.66a9.41 9.41 0 0 0-1.24.1l-.36.06c-.3.053-.6.123-.9.21l-.35.1c-.4.125-.79.276-1.17.45a11 11 0 0 0-1.11.62l-.33.22c-.273.18-.543.377-.81.59l-.31.25c-.35.3-.7.61-1 1a18.88 18.88 0 0 0-2.15 2.67v.07c-2.67 4.35-3.77 10.22-3.62 17.63a58.61 58.61 0 0 0 3.17 18.58 57 57 0 0 0 8 14.83 42.26 42.26 0 0 0 11.39 10.79 46.74 46.74 0 0 0 9.84 4.64c1.3.44 2.61.85 3.92 1.18a64.34 64.34 0 0 0 1-9.92c0-2 0-3.76-.08-5.34-.04-1.86-.07-3.74-.13-5.69zM285.38 408.05z"/><path d="M285.38 408.05c4.54-5.92 8.1-14 10.07-23.93a52.12 52.12 0 0 1-17.21-7 63.69 63.69 0 0 1-14.52-12.65 71.13 71.13 0 0 1-10.28-17.6 62.9 62.9 0 0 1-4.16-21.74 55.35 55.35 0 0 1 2.15-16.76 36.09 36.09 0 0 1 6.26-12.12 30.26 30.26 0 0 1 2.1-2.4l-4.62 4.73a30.3 30.3 0 0 0-2.1 2.4 36.1 36.1 0 0 0-6.25 12.15 55.36 55.36 0 0 0-2.15 16.76 62.91 62.91 0 0 0 4.15 21.68 71.13 71.13 0 0 0 10.28 17.56 63.69 63.69 0 0 0 14.52 12.65 52.12 52.12 0 0 0 17.21 7c-1.93 9.72-5.39 17.66-9.79 23.54a22.07 22.07 0 0 0 2.48-2.18 24.55 24.55 0 0 0 1.86-2.09z" fill="#509FCE" fill-rule="nonzero"/><path d="M344.37 351.31c-.5 1-1 1.94-1.56 2.86.54-.93 1.06-1.87 1.56-2.86zM340.66 357.55c-.56.8-1.15 1.56-1.74 2.3.6-.72 1.18-1.5 1.74-2.3zM338.46 360.41c-.62.74-1.26 1.46-1.92 2.14.67-.68 1.28-1.42 1.92-2.14zM342.41 354.84c-.54.9-1.1 1.78-1.68 2.61.58-.83 1.09-1.71 1.68-2.61zM298.24 352.98a147.68 147.68 0 0 0-2.65-21.85 91.93 91.93 0 0 0-5.3-16.72 29.73 29.73 0 0 0-7.35-10.81c-2.84-2.45-5.67-3.67-8.46-3.66a9.41 9.41 0 0 0-1.24.1l-.36.06c-.3.053-.6.123-.9.21l-.35.1c-.4.125-.79.276-1.17.45a11 11 0 0 0-1.11.62l-.33.22c-.273.18-.543.377-.81.59l-.31.25c-.35.3-.7.61-1 1a18.88 18.88 0 0 0-2.15 2.67v.07c-2.67 4.35-3.77 10.22-3.62 17.63a58.61 58.61 0 0 0 3.17 18.58 57 57 0 0 0 8 14.83 42.26 42.26 0 0 0 11.39 10.79 46.74 46.74 0 0 0 9.84 4.64c1.3.44 2.61.85 3.92 1.18a64.34 64.34 0 0 0 1-9.92c0-2 0-3.76-.08-5.34-.04-1.86-.07-3.74-.13-5.69z"/><path d="M338.46 360.41l.46-.56c.6-.74 1.18-1.5 1.74-2.3l.07-.09c.58-.83 1.13-1.71 1.68-2.61l.4-.67c.54-.92 1.06-1.87 1.56-2.86l1.5-2.8v-1.55c.42-9.62 1.18-18.3 2-26.37.82-8.07 1.55-14.88 2.38-20.16a87.68 87.68 0 0 1 2-9.92l-4.62 4.73a87.67 87.67 0 0 0-2 9.92c-.83 5.28-1.63 12.12-2.38 20.16-.75 8.04-1.53 16.75-2 26.37v1.55l-1.5 2.8a47.93 47.93 0 0 1-5.59 8.72c.82-.7 1.62-1.42 2.38-2.21.76-.79 1.28-1.43 1.92-2.15z" fill="#509FCE" fill-rule="nonzero"/><path d="M342.82 354.13l-.4.67.4-.67z" fill="#0B527D" fill-rule="nonzero"/><path d="M401.7 396.54l-.31.4.31-.4zM399.65 398.99l-.34.36.34-.36zM422.1 290.65zM422.88 289.64zM421.61 291.61zM298.24 352.98a147.68 147.68 0 0 0-2.65-21.85 91.93 91.93 0 0 0-5.3-16.72 29.73 29.73 0 0 0-7.35-10.81c-2.84-2.45-5.67-3.67-8.46-3.66a9.41 9.41 0 0 0-1.24.1l-.36.06c-.3.053-.6.123-.9.21l-.35.1c-.4.125-.79.276-1.17.45a11 11 0 0 0-1.11.62l-.33.22c-.273.18-.543.377-.81.59l-.31.25c-.35.3-.7.61-1 1a18.88 18.88 0 0 0-2.15 2.67v.07c-2.67 4.35-3.77 10.22-3.62 17.63a58.61 58.61 0 0 0 3.17 18.58 57 57 0 0 0 8 14.83 42.26 42.26 0 0 0 11.39 10.79 46.74 46.74 0 0 0 9.84 4.64c1.3.44 2.61.85 3.92 1.18a64.34 64.34 0 0 0 1-9.92c0-2 0-3.76-.08-5.34-.04-1.86-.07-3.74-.13-5.69z"/><path d="M399.65 398.99l1.74-2 .31-.4c.61-.78 1.22-1.59 1.83-2.47 5.44-7.77 9.85-19 13.59-33.54.49-6.22.65-12.73 1.15-19.86.5-7.13.95-14 1.12-20.15.17-6.15.69-12.09.91-17 .51-5 .74-8.68 1-10.86a5.53 5.53 0 0 1 .3-1c0-.1.09-.19.13-.29a5.83 5.83 0 0 1 .36-.67l.19-.29a7.48 7.48 0 0 1 .58-.72l.14-.16-4.56 4.55a6.05 6.05 0 0 0-1.75 3.19c-.28 2.17-.5 5.87-1 10.86-.22 5-.71 10.85-.91 17-.2 6.15-.65 13-1.12 20.15-.47 7.15-.66 13.64-1.15 19.86-3.75 14.57-8.16 25.77-13.59 33.54a50.7 50.7 0 0 1-2.31 3.1 28.23 28.23 0 0 0 2.72-2.55l.32-.29z" fill="#509FCE" fill-rule="nonzero"/><path d="M422.88 289.64l.14-.16-.14.16zM401.39 396.94c-.58.727-1.16 1.393-1.74 2 .58-.6 1.16-1.267 1.74-2zM422.3 290.35l-.19.29.19-.29zM421.74 291.32c0 .1-.09.19-.13.29.04-.1.09-.19.13-.29z" fill="#0B527D" fill-rule="nonzero"/><path d="M456.22 418.13l.51-.48-.51.48zM298.24 352.98a147.68 147.68 0 0 0-2.65-21.85 91.93 91.93 0 0 0-5.3-16.72 29.73 29.73 0 0 0-7.35-10.81c-2.84-2.45-5.67-3.67-8.46-3.66a9.41 9.41 0 0 0-1.24.1l-.36.06c-.3.053-.6.123-.9.21l-.35.1c-.4.125-.79.276-1.17.45a11 11 0 0 0-1.11.62l-.33.22c-.273.18-.543.377-.81.59l-.31.25c-.35.3-.7.61-1 1a18.88 18.88 0 0 0-2.15 2.67v.07c-2.67 4.35-3.77 10.22-3.62 17.63a58.61 58.61 0 0 0 3.17 18.58 57 57 0 0 0 8 14.83 42.26 42.26 0 0 0 11.39 10.79 46.74 46.74 0 0 0 9.84 4.64c1.3.44 2.61.85 3.92 1.18a64.34 64.34 0 0 0 1-9.92c0-2 0-3.76-.08-5.34-.04-1.86-.07-3.74-.13-5.69z"/><path d="M456.74 417.7l-.51.48c-.53.48-1.07.93-1.61 1.36a20.8 20.8 0 0 1-12.93 4.71c-4.66 0-8.4-.57-11.22-2.41a23.36 23.36 0 0 1-7-7.41 33.39 33.39 0 0 1-3.94-11.77 76.12 76.12 0 0 1-1.57-15.48 28.41 28.41 0 0 0-2.37 4.65 43.5 43.5 0 0 1-2.1 4.2 64.58 64.58 0 0 0 1.43 11.36 33.39 33.39 0 0 0 3.9 11.74 23.36 23.36 0 0 0 7 7.41c2.82 1.84 6.56 2.43 11.22 2.41a20.8 20.8 0 0 0 12.93-4.71c.587-.46 1.163-.95 1.73-1.47s1.14-1.067 1.72-1.64l4.62-4.73-.23.22c-.36.4-.72.74-1.07 1.08z" fill="#509FCE" fill-rule="nonzero"/><path d="M454.61 419.54c.54-.43 1.08-.89 1.61-1.36-.53.47-1.07.95-1.61 1.36z" fill="#0B527D" fill-rule="nonzero"/><path d="M298.24 352.98a147.68 147.68 0 0 0-2.65-21.85 91.93 91.93 0 0 0-5.3-16.72 29.73 29.73 0 0 0-7.35-10.81c-2.84-2.45-5.67-3.67-8.46-3.66a9.41 9.41 0 0 0-1.24.1l-.36.06c-.3.053-.6.123-.9.21l-.35.1c-.4.125-.79.276-1.17.45a11 11 0 0 0-1.11.62l-.33.22c-.273.18-.543.377-.81.59l-.31.25c-.35.3-.7.61-1 1a18.88 18.88 0 0 0-2.15 2.67v.07c-2.67 4.35-3.77 10.22-3.62 17.63a58.61 58.61 0 0 0 3.17 18.58 57 57 0 0 0 8 14.83 42.26 42.26 0 0 0 11.39 10.79 46.74 46.74 0 0 0 9.84 4.64c1.3.44 2.61.85 3.92 1.18a64.34 64.34 0 0 0 1-9.92c0-2 0-3.76-.08-5.34-.04-1.86-.07-3.74-.13-5.69z"/><path d="M454.61 404.72c.3-.313.603-.647.91-1a91.22 91.22 0 0 0 8.12-11.83c3-5 6.28-11.2 9.57-18 3.29-6.8 7.13-14.29 11-22.7l1.49-3.11c.19-5.26.4-10.53.59-15.81a755.965 755.965 0 0 1 3-37.2l-15.47.06 1.63-10.56-4.63 4.73-1.63 10.56 15.49-.08a866.584 866.584 0 0 0-3 37.21c-.19 5.28-.4 10.56-.59 15.81l-1.49 3.11c-3.87 8.4-7.74 15.85-11 22.7s-6.56 13.06-9.57 18a106.9 106.9 0 0 1-6.66 10 15.76 15.76 0 0 0 2.25-1.92l-.01.03z" fill="#509FCE" fill-rule="nonzero"/><path d="M454.61 404.72c.3-.307.603-.64.91-1-.307.347-.61.68-.91 1z" fill="#0B527D" fill-rule="nonzero"/><path d="M298.24 352.98a147.68 147.68 0 0 0-2.65-21.85 91.93 91.93 0 0 0-5.3-16.72 29.73 29.73 0 0 0-7.35-10.81c-2.84-2.45-5.67-3.67-8.46-3.66a9.41 9.41 0 0 0-1.24.1l-.36.06c-.3.053-.6.123-.9.21l-.35.1c-.4.125-.79.276-1.17.45a11 11 0 0 0-1.11.62l-.33.22c-.273.18-.543.377-.81.59l-.31.25c-.35.3-.7.61-1 1a18.88 18.88 0 0 0-2.15 2.67v.07c-2.67 4.35-3.77 10.22-3.62 17.63a58.61 58.61 0 0 0 3.17 18.58 57 57 0 0 0 8 14.83 42.26 42.26 0 0 0 11.39 10.79 46.74 46.74 0 0 0 9.84 4.64c1.3.44 2.61.85 3.92 1.18a64.34 64.34 0 0 0 1-9.92c0-2 0-3.76-.08-5.34-.04-1.86-.07-3.74-.13-5.69z"/><path d="M494.82 249.44c1.63-11.8 2.92-23.59 3.94-35.36l-4.62 4.73c-1 11.77-2.31 23.56-3.94 35.36-1.14 10.19-2.49 20.19-3.69 30.33h4.07c1.33-11.79 2.95-23.29 4.24-35.06z" fill="#509FCE" fill-rule="nonzero"/><path d="M298.24 352.98a147.68 147.68 0 0 0-2.65-21.85 91.93 91.93 0 0 0-5.3-16.72 29.73 29.73 0 0 0-7.35-10.81c-2.84-2.45-5.67-3.67-8.46-3.66a9.41 9.41 0 0 0-1.24.1l-.36.06c-.3.053-.6.123-.9.21l-.35.1c-.4.125-.79.276-1.17.45a11 11 0 0 0-1.11.62l-.33.22c-.273.18-.543.377-.81.59l-.31.25c-.35.3-.7.61-1 1a18.88 18.88 0 0 0-2.15 2.67v.07c-2.67 4.35-3.77 10.22-3.62 17.63a58.61 58.61 0 0 0 3.17 18.58 57 57 0 0 0 8 14.83 42.26 42.26 0 0 0 11.39 10.79 46.74 46.74 0 0 0 9.84 4.64c1.3.44 2.61.85 3.92 1.18a64.34 64.34 0 0 0 1-9.92c0-2 0-3.76-.08-5.34-.04-1.86-.07-3.74-.13-5.69z"/><path d="M511.6 299.63l27.91-.15 4.62-4.73-32.23.17c-.12 1.573-.22 3.143-.3 4.71z" fill="#53A3D2" fill-rule="nonzero"/><path d="M298.24 352.98a147.68 147.68 0 0 0-2.65-21.85 91.93 91.93 0 0 0-5.3-16.72 29.73 29.73 0 0 0-7.35-10.81c-2.84-2.45-5.67-3.67-8.46-3.66a9.41 9.41 0 0 0-1.24.1l-.36.06c-.3.053-.6.123-.9.21l-.35.1c-.4.125-.79.276-1.17.45a11 11 0 0 0-1.11.62l-.33.22c-.273.18-.543.377-.81.59l-.31.25c-.35.3-.7.61-1 1a18.88 18.88 0 0 0-2.15 2.67v.07c-2.67 4.35-3.77 10.22-3.62 17.63a58.61 58.61 0 0 0 3.17 18.58 57 57 0 0 0 8 14.83 42.26 42.26 0 0 0 11.39 10.79 46.74 46.74 0 0 0 9.84 4.64c1.3.44 2.61.85 3.92 1.18a64.34 64.34 0 0 0 1-9.92c0-2 0-3.76-.08-5.34-.04-1.86-.07-3.74-.13-5.69zM541.74 382.23c-.64.77-1.27 1.5-1.91 2.21a89.8 89.8 0 0 0 1.91-2.21zM539.33 385z"/><path d="M537.66 386.77c.55-.57 1.11-1.16 1.66-1.77l.5-.56a89.8 89.8 0 0 0 1.91-2.21c3.92-4.73 7.9-10.41 12.18-16.67 4.28-6.26 7.47-14.75 12.52-20.31.21-4.25.42-8.5.58-12.82 1.58-27.92 4.75-55.1 8.54-82.81a709.329 709.329 0 0 0 3.92-35.36l-4.65 4.74a675.889 675.889 0 0 1-3.92 35.36c-3.8 27.71-7 54.88-8.54 82.81-.16 4.32-.37 8.57-.58 12.82-5 5.56-8.21 14-12.52 20.31-4.31 6.31-8.25 11.95-12.18 16.67-.67.81-1.33 1.57-2 2.31.88-.8 1.74-1.63 2.58-2.51z" fill="#509FCE" fill-rule="nonzero"/><path d="M602.21 310.26l-.53.66.53-.66zM599.17 314.13l-1.91 2.42 1.91-2.42zM596.43 317.57l-1.7 2.13 1.7-2.13zM609.82 301.25l-.12.13.12-.13zM604.82 307.07l-.77.94.77-.94zM607.23 304.13l-.73.87.73-.87zM593.95 320.66c-.81 1-1.63 2-2.46 3 .84-1.01 1.65-2.01 2.46-3zM298.24 352.98a147.68 147.68 0 0 0-2.65-21.85 91.93 91.93 0 0 0-5.3-16.72 29.73 29.73 0 0 0-7.35-10.81c-2.84-2.45-5.67-3.67-8.46-3.66a9.41 9.41 0 0 0-1.24.1l-.36.06c-.3.053-.6.123-.9.21l-.35.1c-.4.125-.79.276-1.17.45a11 11 0 0 0-1.11.62l-.33.22c-.273.18-.543.377-.81.59l-.31.25c-.35.3-.7.61-1 1a18.88 18.88 0 0 0-2.15 2.67v.07c-2.67 4.35-3.77 10.22-3.62 17.63a58.61 58.61 0 0 0 3.17 18.58 57 57 0 0 0 8 14.83 42.26 42.26 0 0 0 11.39 10.79 46.74 46.74 0 0 0 9.84 4.64c1.3.44 2.61.85 3.92 1.18a64.34 64.34 0 0 0 1-9.92c0-2 0-3.76-.08-5.34-.04-1.86-.07-3.74-.13-5.69z"/><path d="M593.95 320.66l.77-1 1.7-2.13.83-1 1.91-2.42 2.52-3.19.53-.66 1.8-2.24.77-.94c.56-.667 1.127-1.333 1.7-2l.73-.87c.8-.94 1.62-1.87 2.45-2.79l.12-.13c.78-.86 1.577-1.707 2.39-2.54l.29-.31-4.64 4.69c-2.84 2.91-5.48 6-8.05 9.12-1.71 2.1-3.4 4.24-5.1 6.39-1 1.33-2.12 2.67-3.18 4v1c.84-.99 1.65-1.99 2.46-2.98z" fill="#509FCE" fill-rule="nonzero"/><path d="M609.67 301.38c-.83.92-1.64 1.85-2.45 2.79.81-.95 1.6-1.88 2.45-2.79zM597.26 316.52l-.83 1 .83-1zM612.18 298.71a123.47 123.47 0 0 0-2.39 2.54c.78-.86 1.577-1.707 2.39-2.54zM601.69 310.91l-2.52 3.22 2.52-3.22zM604.02 308.02l-1.8 2.24 1.8-2.24zM606.49 305.03c-.573.667-1.14 1.333-1.7 2 .56-.653 1.127-1.32 1.7-2z" fill="#0B527D" fill-rule="nonzero"/><path d="M669.16 414.51l1.07-1-1.07 1zM618.3 302.69zM665.11 418.02c.56-.44 1.13-.91 1.69-1.39-.56.5-1.12.95-1.69 1.39zM298.24 352.98a147.68 147.68 0 0 0-2.65-21.85 91.93 91.93 0 0 0-5.3-16.72 29.73 29.73 0 0 0-7.35-10.81c-2.84-2.45-5.67-3.67-8.46-3.66a9.41 9.41 0 0 0-1.24.1l-.36.06c-.3.053-.6.123-.9.21l-.35.1c-.4.125-.79.276-1.17.45a11 11 0 0 0-1.11.62l-.33.22c-.273.18-.543.377-.81.59l-.31.25c-.35.3-.7.61-1 1a18.88 18.88 0 0 0-2.15 2.67v.07c-2.67 4.35-3.77 10.22-3.62 17.63a58.61 58.61 0 0 0 3.17 18.58 57 57 0 0 0 8 14.83 42.26 42.26 0 0 0 11.39 10.79 46.74 46.74 0 0 0 9.84 4.64c1.3.44 2.61.85 3.92 1.18a64.34 64.34 0 0 0 1-9.92c0-2 0-3.76-.08-5.34-.04-1.86-.07-3.74-.13-5.69zM667.36 416.13c.38-.34.77-.68 1.15-1-.38.34-.77.68-1.15 1z"/><path d="M670.22 413.48l-1.07 1-.65.61c-.38.35-.77.69-1.15 1l-.55.48c-.57.48-1.13.95-1.69 1.39-4.78 3.49-9.22 5.38-13.55 5.4a24.13 24.13 0 0 1-7.11-1.29 17.84 17.84 0 0 1-5.75-4c-1.79-1.66-2.92-4.21-4.05-7.06-1.13-2.85-1.6-6.62-1.4-11.25.2-4.63.7-9.57 1.23-14.81s1.38-10.79 2.23-16.32c.85-5.53 1.69-11.06 2.86-16.6 1.17-5.54 2-10.75 2.83-15.66.83-4.91 1.62-9.24 2.09-13.24.47-3.7.91-7.09 1-9.55.28-6.51-.46-11.19-2.19-14.4a9.7 9.7 0 0 0-8.19-4.8 19.08 19.08 0 0 0-13.58 5.14c-1.08 1-2.16 2-3.24 3.12-.82.84-1.64 1.74-2.46 2.65.36-.34.72-.72 1.08-1a19.08 19.08 0 0 1 13.59-5.16 9.7 9.7 0 0 1 8.19 4.8c1.73 3.21 2.47 7.89 2.19 14.4-.11 2.47-.54 5.85-1 9.55-.47 4-1.27 8.3-2.08 13.21s-1.67 10.15-2.83 15.66c-1.16 5.51-2 11.07-2.86 16.6-.86 5.53-1.69 11.07-2.23 16.32s-1 10.17-1.23 14.81c-.23 4.64.26 8.4 1.4 11.25 1.14 2.85 2.26 5.4 4.05 7.06a17.84 17.84 0 0 0 5.75 4 24.13 24.13 0 0 0 7.11 1.29c4.34 0 8.77-1.91 13.55-5.4a64.05 64.05 0 0 0 6.23-5.66l4.62-4.73-.45.44-.69.75z" fill="#509FCE" fill-rule="nonzero"/><path d="M670.9 412.81l-.68.68.68-.68zM666.82 416.63l.55-.48-.55.48z" fill="#0B527D" fill-rule="nonzero"/><path d="M298.24 352.98a147.68 147.68 0 0 0-2.65-21.85 91.93 91.93 0 0 0-5.3-16.72 29.73 29.73 0 0 0-7.35-10.81c-2.84-2.45-5.67-3.67-8.46-3.66a9.41 9.41 0 0 0-1.24.1l-.36.06c-.3.053-.6.123-.9.21l-.35.1c-.4.125-.79.276-1.17.45a11 11 0 0 0-1.11.62l-.33.22c-.273.18-.543.377-.81.59l-.31.25c-.35.3-.7.61-1 1a18.88 18.88 0 0 0-2.15 2.67v.07c-2.67 4.35-3.77 10.22-3.62 17.63a58.61 58.61 0 0 0 3.17 18.58 57 57 0 0 0 8 14.83 42.26 42.26 0 0 0 11.39 10.79 46.74 46.74 0 0 0 9.84 4.64c1.3.44 2.61.85 3.92 1.18a64.34 64.34 0 0 0 1-9.92c0-2 0-3.76-.08-5.34-.04-1.86-.07-3.74-.13-5.69z"/><path d="M564.16 395.91c.8-7.89 1.35-15.77 1.8-23.65-.053-1.487-.083-2.97-.09-4.45-1.44 3.28-3.11 6.74-4.56 9.65-.45 7.73-1 15.46-1.77 23.19a93.85 93.85 0 0 1-3.22 17.21c-.92 3.21-2 6.45-3.33 10h17.77l4.62-4.73h-17.77c3.48-9.46 5.51-16.73 6.55-27.22z" fill="#509FCE" fill-rule="nonzero"/><path d="M670.34 397.98c-.3.35-.6.65-.89 1 .29-.35.59-.65.89-1zM672.58 395.29c-.29.36-.56.67-.84 1 .28-.33.55-.65.84-1zM298.24 352.98a147.68 147.68 0 0 0-2.65-21.85 91.93 91.93 0 0 0-5.3-16.72 29.73 29.73 0 0 0-7.35-10.81c-2.84-2.45-5.67-3.67-8.46-3.66a9.41 9.41 0 0 0-1.24.1l-.36.06c-.3.053-.6.123-.9.21l-.35.1c-.4.125-.79.276-1.17.45a11 11 0 0 0-1.11.62l-.33.22c-.273.18-.543.377-.81.59l-.31.25c-.35.3-.7.61-1 1a18.88 18.88 0 0 0-2.15 2.67v.07c-2.67 4.35-3.77 10.22-3.62 17.63a58.61 58.61 0 0 0 3.17 18.58 57 57 0 0 0 8 14.83 42.26 42.26 0 0 0 11.39 10.79 46.74 46.74 0 0 0 9.84 4.64c1.3.44 2.61.85 3.92 1.18a64.34 64.34 0 0 0 1-9.92c0-2 0-3.76-.08-5.34-.04-1.86-.07-3.74-.13-5.69zM674.95 392.26l-.7.9.7-.9z"/><path d="M669.44 398.96c.3-.33.59-.63.89-1 .46-.53.93-1.11 1.4-1.68.28-.34.56-.66.84-1 .54-.67 1.11-1.4 1.67-2.13l.7-.9 2.54-3.32c3.6-4.77 7.26-10.46 11.24-16.74 3.98-6.28 8-12.9 11.68-19.82l2-3.62-4.58 4.75-2 3.63c-3.7 6.92-7.7 13.52-11.68 19.82-3.98 6.3-7.64 12-11.24 16.74-2.56 3.35-4.76 6.25-6.87 8.7a32.455 32.455 0 0 0 2-1.87c.45-.49.93-1.03 1.41-1.56z" fill="#509FCE" fill-rule="nonzero"/><path d="M677.5 388.95l-2.54 3.32 2.54-3.32z" fill="#0B527D" fill-rule="nonzero"/><path d="M530.19 417.91l.62-.49-.62.49zM532.42 416.13l.62-.53-.62.53zM485.66 378.77zM535.21 413.61l.17-.16-.17.16zM298.24 352.98a147.68 147.68 0 0 0-2.65-21.85 91.93 91.93 0 0 0-5.3-16.72 29.73 29.73 0 0 0-7.35-10.81c-2.84-2.45-5.67-3.67-8.46-3.66a9.41 9.41 0 0 0-1.24.1l-.36.06c-.3.053-.6.123-.9.21l-.35.1c-.4.125-.79.276-1.17.45a11 11 0 0 0-1.11.62l-.33.22c-.273.18-.543.377-.81.59l-.31.25c-.35.3-.7.61-1 1a18.88 18.88 0 0 0-2.15 2.67v.07c-2.67 4.35-3.77 10.22-3.62 17.63a58.61 58.61 0 0 0 3.17 18.58 57 57 0 0 0 8 14.83 42.26 42.26 0 0 0 11.39 10.79 46.74 46.74 0 0 0 9.84 4.64c1.3.44 2.61.85 3.92 1.18a64.34 64.34 0 0 0 1-9.92c0-2 0-3.76-.08-5.34-.04-1.86-.07-3.74-.13-5.69zM486.82 389.27l.15 1-.15-1z"/><path d="M535.38 413.45l-.17.16c-.73.69-1.46 1.35-2.18 2l-.62.53c-.54.46-1.077.9-1.61 1.32l-.62.49c-.71.54-1.41 1.06-2.11 1.53-4.887 3.1-9.503 4.65-13.85 4.65a21.78 21.78 0 0 1-11.83-3 25.54 25.54 0 0 1-8.88-9.87c-2.58-4.33-4.55-10.21-6-17.33-.23-1.19-.44-2.43-.63-3.7l-.15-1c-.19-1.29-.37-2.61-.52-4a169.283 169.283 0 0 1-.6-6.51c-.167-2.267-.293-4.63-.38-7.09a222.878 222.878 0 0 1-.11-3.76 420.228 420.228 0 0 0-4.49 9.13 145.15 145.15 0 0 0 2.25 21.63c1.4 7.12 3.37 13 6 17.33a25.54 25.54 0 0 0 8.88 9.87 21.78 21.78 0 0 0 11.83 3c4.34 0 8.96-1.577 13.86-4.73a63.77 63.77 0 0 0 9.63-8.3l4.62-4.73-.27.27c-.68.79-1.37 1.46-2.05 2.11z" fill="#509FCE" fill-rule="nonzero"/><path d="M486.25 385.27zM485.28 371.68zM702.45 348.77l-2 3.62c-3.7 6.92-7.7 13.52-11.68 19.82-3.98 6.3-7.64 12-11.24 16.74l-2.54 3.32-.7.9c-.56.73-1.13 1.45-1.67 2.13-.29.36-.56.67-.84 1-.47.57-.94 1.15-1.4 1.68-.3.34-.6.65-.89 1-.48.53-1 1.07-1.44 1.55a32.455 32.455 0 0 1-2 1.87c-1.87 1.59-3.41 2.39-4.7 2.39-3.41-.19-5.12-3.7-4.81-10.8a111.15 111.15 0 0 1 1.95-17.58c1.18-5.83 2.06-12 3.56-18.11 1.18-6.13 2.39-12.9 3.6-19.64a157.87 157.87 0 0 0 2.12-21.3c.44-10.83-1.39-19-5.49-25.12-4.09-5.8-10.49-9.26-18.84-9.74h-1.71a28.74 28.74 0 0 0-14.92 4.38 74.28 74.28 0 0 0-14.57 11.89 123.47 123.47 0 0 0-2.39 2.54l-.12.13c-.83.92-1.64 1.85-2.45 2.79l-.73.87c-.573.667-1.14 1.333-1.7 2l-.77.94-1.8 2.24-.53.66-2.58 3.19-1.91 2.42-.83 1-1.7 2.13-.77 1c-.81 1-1.63 2-2.46 3v-1c.08-2.73.15-5.53.24-8.32.22-7.2.6-14.39 1-21.61.57-10.24 1.16-20.5 1.38-30.78.14-7.45.62-14.26 1.11-20.47.49-6.21.7-11.79.92-16.43.22-4.64.44-8.39.69-10.85l-17.36.09a675.889 675.889 0 0 1-3.92 35.36c-3.8 27.71-7 54.88-8.54 82.81-.16 4.32-.37 8.57-.58 12.82-5 5.56-8.21 14-12.52 20.31-4.31 6.31-8.25 11.95-12.18 16.67-.64.77-1.27 1.5-1.91 2.21l-.5.56a74.107 74.107 0 0 1-4.2 4.27 89.969 89.969 0 0 1-4.7 4.12c-3.29 2.69-5.88 4.43-9.45 4.43-2.9.08-6.21-.27-7.34-3.08a76.46 76.46 0 0 1-2.46-13c-.74-5.89-.88-13-1.06-21.7-.07-3.43-.15-7.45.07-12.4-.1-4.66.09-9.91.3-15.51s.38-11.77.57-18c.13-4.7.27-9.58.54-14.51.087-1.567.187-3.137.3-4.71l32.23-.17 1.69-10.6-33.17.18c.14-7.74.6-15.19.77-22.62.17-7.43.64-14.28 1.13-20.47.49-6.19.67-11.79.9-16.43.23-4.64.45-8.39.71-10.85l-17.34.13c-1 11.77-2.31 23.56-3.94 35.36-1.31 11.77-2.93 23.27-4.24 35h-4.07l-11.12.06-1.63 10.58 15.49-.08a867.008 867.008 0 0 0-3 37.2c-.19 5.28-.4 10.56-.59 15.81l-1.5 3.07c-3.87 8.4-7.74 15.85-11 22.7s-6.56 13.06-9.57 18a91.22 91.22 0 0 1-8.12 11.83c-.3.347-.603.68-.91 1a15.76 15.76 0 0 1-2.25 1.92 7 7 0 0 1-3.88 1.46c-3.11 0-5-2.14-6-6.8-1-4.33-1.45-10.52-1.61-18.29-.05-2.47-.13-6.51.06-11.76s.39-10.85.58-17.36c.19-6.51.67-13 .83-19.86.16-6.86.66-13.32.84-19.22.18-5.9.41-11.17.61-15.81.2-4.64.17-7.45.13-9.32-.04-1.87-.38-3.08-1.34-4-.64-.93-2.2-1.22-4-1.21a22.94 22.94 0 0 0-4 .32 34.89 34.89 0 0 0-5.57 1.29 17.94 17.94 0 0 0-4.91 2.49 11 11 0 0 0-1 .91l-.14.16a7.45 7.45 0 0 0-.58.72l-.19.29a5.82 5.82 0 0 0-.36.67c0 .1-.09.19-.13.29a5.53 5.53 0 0 0-.3 1c-.28 2.17-.5 5.87-1 10.86-.22 5-.71 10.85-.91 17-.2 6.15-.65 13-1.12 20.15-.47 7.15-.66 13.64-1.15 19.86-3.75 14.57-8.16 25.77-13.59 33.54-.61.88-1.22 1.69-1.83 2.47l-.31.4c-.58.727-1.16 1.393-1.74 2l-.34.36a28.23 28.23 0 0 1-2.72 2.55c-3 2.46-5.95 3.71-8.94 3.72-6.21 0-10.62-3-13.52-8.91-2.91-6.2-4.33-15.17-4.59-27.87-.09-4.34.11-9.32.32-14.58.21-5.26.72-10.56 1.22-16.13.5-5.57 1-10.86 1.52-16.14.52-5.28 1.05-9.92 1.58-14.26s.75-8.07 1.33-11.18c.23-3.09.52-5 .49-6.19a6.51 6.51 0 0 0-1.65-4.65 6.73 6.73 0 0 0-4.37-1.21 29.14 29.14 0 0 0-5 .35l-5.58.94a16.23 16.23 0 0 0-4.6 1.9 11.61 11.61 0 0 0-2.73 2.8 87.68 87.68 0 0 0-2 9.92c-.83 5.28-1.63 12.12-2.38 20.16-.75 8.04-1.53 16.75-2 26.37v1.55l-1.5 2.8c-.5 1-1 1.94-1.56 2.86l-.4.67c-.54.9-1.1 1.78-1.68 2.61l-.07.09c-.56.8-1.15 1.56-1.74 2.3l-.46.56c-.62.74-1.26 1.46-1.92 2.14-.66.68-1.57 1.52-2.38 2.21-.22.19-.43.38-.66.57a48.22 48.22 0 0 1-14.61 7.99c.86-3.73 1.4-7.45 1.94-11.48.24-4 .46-7.75.38-11.79a95.26 95.26 0 0 0-4.32-27.85 63.21 63.21 0 0 0-10.32-19.8 45 45 0 0 0-13.57-12 27.46 27.46 0 0 0-25.78-1.42 23.79 23.79 0 0 0-9.44 7.5 36.09 36.09 0 0 0-6.26 12.12 55.35 55.35 0 0 0-2.17 16.72 62.9 62.9 0 0 0 4.17 21.68 71.13 71.13 0 0 0 10.28 17.6 63.69 63.69 0 0 0 14.5 12.72 52.12 52.12 0 0 0 17.21 7c-2 9.92-5.53 18-10.07 23.93a24.55 24.55 0 0 1-1.87 2.17 22.07 22.07 0 0 1-2.48 2.18 21.82 21.82 0 0 1-13.45 4.43 22.92 22.92 0 0 1-14.36-5.2 44.28 44.28 0 0 1-10.81-13.58 82.13 82.13 0 0 1-6.92-19.81 113 113 0 0 1-2.66-22.94c-.267-13.02.733-23.877 3-32.57a83.17 83.17 0 0 1 8.26-20.81 56.87 56.87 0 0 1 5.51-8c.85-1 1.73-2 2.62-2.86.46-.46.927-.907 1.4-1.34l.58-.52c.65-.57 1.32-1.12 2-1.63l-2.29-5.88a17.43 17.43 0 0 0-6.47 1.89 58.17 58.17 0 0 0-9.47 5.94 74.36 74.36 0 0 0-10.65 10 71 71 0 0 0-9.65 14.33 76.63 76.63 0 0 0-7 18.63 94.57 94.57 0 0 0 2.26 50.2 70.29 70.29 0 0 0 11.9 22.28 58.09 58.09 0 0 0 18.29 15.09 51 51 0 0 0 24 5.44 41 41 0 0 0 16.68-3.2 45.16 45.16 0 0 0 13.78-8.75 75.55 75.55 0 0 0 10.88-13.08 64.91 64.91 0 0 0 6.22-12.09 50.83 50.83 0 0 0 17.8-8.43 51.93 51.93 0 0 0 6.09-5.3l4.62-4.73c-.16.17-.34.31-.51.48a44.79 44.79 0 0 0 3.54-3.91c.06 3.11-.19 6.19-.13 9.3.2 9.91 1.31 18.29 3.31 24.47s4.57 11.44 7.73 14.85c3.18 3.68 6.34 6.16 10.09 7.37a30 30 0 0 0 10.26 2.12 27 27 0 0 0 11.44-2.53 60 60 0 0 0 9.47-5.94 63.75 63.75 0 0 0 7.6-8.1c2.4-3.12 3.9-5.91 5.69-8.71.61-1.15 1.22-2.23 1.79-3.27a43.5 43.5 0 0 0 2.1-4.2 28.41 28.41 0 0 1 2.37-4.65 76.12 76.12 0 0 0 1.57 15.48 33.39 33.39 0 0 0 3.94 11.77 23.36 23.36 0 0 0 7 7.41c2.82 1.84 6.56 2.43 11.22 2.41a20.8 20.8 0 0 0 12.93-4.71c.54-.43 1.08-.89 1.61-1.36l.51-.48c.36-.34.72-.68 1.07-1a56.61 56.61 0 0 0 8.04-10.59 208.82 208.82 0 0 0 11.33-21.44c1.12-2.48 2.307-5.033 3.56-7.66 1.413-2.96 2.91-6.003 4.49-9.13 0 1.28.037 2.533.11 3.76.087 2.46.213 4.823.38 7.09.167 2.267.367 4.437.6 6.51.16 1.38.34 2.7.52 4l.15 1c.2 1.27.4 2.52.63 3.7 1.4 7.12 3.37 13 6 17.33a25.54 25.54 0 0 0 8.88 9.87 21.78 21.78 0 0 0 11.83 3c4.34 0 8.96-1.577 13.86-4.73.7-.47 1.4-1 2.11-1.53l.62-.49a54.1 54.1 0 0 0 1.61-1.32l.62-.53c.72-.63 1.44-1.28 2.18-2l.17-.16c.68-.65 1.37-1.33 2.07-2a121.425 121.425 0 0 0 5.23-5.68 187.9 187.9 0 0 0 15.07-21.46c.35-.59 1.8-3.3 3.56-6.82 1.45-2.91 3.12-6.36 4.56-9.65 0 1.487.03 2.97.09 4.45-.46 7.88-1 15.77-1.8 23.65-1 10.49-3.06 17.77-6.55 27.2h17.77c1-1.76 3.05-5.93 4.17-8.61a92.33 92.33 0 0 0 5.41-18c1.18-6.15 2.35-12.28 2.94-18.45.59-6.17 1.1-12 1.33-17.6a23.14 23.14 0 0 0-.07-3.56c.29-2.61.56-5.21.82-7.82 2.48-5.13 5.18-10.54 8.18-16.67a156.71 156.71 0 0 1 11-18.61 88.34 88.34 0 0 1 6.66-8.41c.82-.91 1.64-1.81 2.46-2.65 1.08-1.1 2.16-2.14 3.24-3.12a19.08 19.08 0 0 1 13.58-5.14 9.7 9.7 0 0 1 8.19 4.8c1.73 3.21 2.47 7.89 2.19 14.4-.11 2.47-.54 5.85-1 9.55-.47 4-1.27 8.3-2.08 13.21s-1.67 10.15-2.83 15.66c-1.16 5.51-2 11.07-2.86 16.6-.86 5.53-1.69 11.07-2.23 16.32s-1 10.17-1.23 14.81c-.23 4.64.26 8.4 1.4 11.25 1.14 2.85 2.26 5.4 4.05 7.06a17.84 17.84 0 0 0 5.75 4 24.13 24.13 0 0 0 7.11 1.29c4.34 0 8.77-1.91 13.55-5.4.56-.44 1.13-.91 1.69-1.39l.55-.48c.38-.34.77-.68 1.15-1l.65-.61 1.07-1 .68-.68a119.46 119.46 0 0 0 8.82-10.1 202.62 202.62 0 0 0 14.23-21.23c4.66-7.79 9-15.63 13.37-23.12l2-3.62-6.96-6zm-405 25.11c-1.31-.34-2.62-.74-3.92-1.18a46.74 46.74 0 0 1-9.84-4.64 42.26 42.26 0 0 1-11.39-10.79 57 57 0 0 1-8-14.83 58.61 58.61 0 0 1-3.17-18.58c-.15-7.41 1-13.28 3.62-17.63v-.07a18.88 18.88 0 0 1 2.15-2.67c.34-.35.68-.66 1-1l.31-.25c.267-.213.537-.41.81-.59l.33-.22a11 11 0 0 1 1.11-.62 9.93 9.93 0 0 1 1.17-.45l.35-.1c.293-.087.593-.157.9-.21l.36-.06a9.41 9.41 0 0 1 1.24-.1c2.79 0 5.62 1.2 8.46 3.66a29.73 29.73 0 0 1 7.35 10.81 91.93 91.93 0 0 1 5.3 16.72 147.68 147.68 0 0 1 2.64 21.88c.06 1.95.09 3.82.12 5.63 0 1.59.07 3.29.08 5.34a64.34 64.34 0 0 1-1.03 9.95h.05z" fill="#0B527D" fill-rule="nonzero"/><path d="M528.08 419.44c.7-.47 1.4-1 2.11-1.53-.71.55-1.37 1.06-2.11 1.53zM533.04 415.58zM537.45 411.41c-.69.7-1.38 1.39-2.07 2 .68-.61 1.37-1.28 2.07-2zM486.92 390.24c.2 1.27.4 2.52.63 3.7-.22-1.19-.43-2.43-.63-3.7zM530.82 417.43a54.1 54.1 0 0 0 1.61-1.32c-.547.46-1.083.9-1.61 1.32zM671.74 396.3c-.47.57-.94 1.15-1.4 1.68.48-.53.93-1.11 1.4-1.68zM674.25 393.13c-.57.73-1.13 1.45-1.67 2.13.54-.64 1.11-1.37 1.67-2.13zM668.51 415.13l.65-.61-.65.61zM594.72 319.7l-.77 1 .77-1zM539.82 384.44l-.5.56.5-.56zM457.82 416.66c-.36.36-.71.7-1.07 1 .34-.3.7-.64 1.07-1zM403.53 394.07zM340.73 357.45l-.07.09.07-.09zM338.92 359.85l-.46.56.46-.56zM253.67 289.76l.58-.52-.58.52zM271.99 300.28c.293-.087.593-.157.9-.21-.307.04-.607.11-.9.21zM269.34 301.46zM270.47 300.84z" fill="#0B527D" fill-rule="nonzero"/><path d="M199.98 491.24l-4.62 4.73a67.75 67.75 0 0 1-5.24 4.83l4.62-4.73a67.75 67.75 0 0 0 5.24-4.83M190.97 433.77a71.55 71.55 0 0 0-16.15-17.57 133.91 133.91 0 0 0-22.61-14.16c-8.47-4.29-16.92-8.59-26-12.56-9.08-3.97-17.54-8.59-26-13.2a138 138 0 0 1-22.64-15.37 75.8 75.8 0 0 1-16.23-19.78c-4.2-7.4-6.22-16.07-6.43-26.3a82.29 82.29 0 0 1 7.6-37.25 83.47 83.47 0 0 1 16.13-23.41l-4.62 4.73a83.47 83.47 0 0 0-16.13 23.43 82.29 82.29 0 0 0-7.6 37.25c.21 10.23 2.24 18.9 6.43 26.3a75.8 75.8 0 0 0 16.21 19.76 138 138 0 0 0 22.64 15.37c8.46 4.61 16.94 9.23 26 13.2 9.06 3.97 17.53 8.27 26 12.56a133.92 133.92 0 0 1 22.61 14.16 71.55 71.55 0 0 1 16.17 17.57c4.15 6.49 6.19 14.24 6.36 22.92a73.09 73.09 0 0 1-1 10.86 65.13 65.13 0 0 1-3.8 11.78 42.49 42.49 0 0 1-7.51 11.51l4.62-4.73a42.49 42.49 0 0 0 7.51-11.51 65.13 65.13 0 0 0 3.8-11.78 73.09 73.09 0 0 0 1-10.86c-.17-8.68-2.2-16.43-6.36-22.92zM70 446.21l-4.62 4.73c1.26-1.57 2.53-3 3.86-4.39l4.58-4.73c-1.32 1.35-2.59 2.82-3.86 4.39" fill="#509FCE" fill-rule="nonzero"/><path d="M194.74 496.07l-4.62 4.73c-7.92 6.87-17.11 12.18-27.88 16.57-10.77 4.39-22.21 6.33-34.92 6.4-13.96.073-25.46-1.417-34.5-4.47-9.06-3-16.59-6.72-21.94-11.35a41.69 41.69 0 0 1-11.47-14.82A39.23 39.23 0 0 1 56 478.25a39.66 39.66 0 0 1 2.5-15.2 38 38 0 0 1 6.88-12.12L70 446.2a38 38 0 0 0-6.88 12.13 39.66 39.66 0 0 0-2.5 15.2 39.23 39.23 0 0 0 3.41 14.88 41.69 41.69 0 0 0 11.47 14.81c5.35 4.63 12.87 8.31 21.94 11.35 9.07 3.04 20.54 4.55 34.5 4.47 12.7-.07 24.15-2 34.92-6.4 10.77-4.4 20-9.7 27.88-16.57" fill="#509FCE" fill-rule="nonzero"/><path d="M95.97 442.34c-.88.76-1.73 1.56-2.55 2.39.82-.83 1.67-1.6 2.55-2.39z"/><path d="M93.42 444.73c.82-.83 1.66-1.63 2.55-2.39-.88.79-1.73 1.56-2.55 2.39z"/><path d="M106.96 434.54a47.25 47.25 0 0 0-11 7.8c-.88.76-1.73 1.56-2.55 2.39-.82.83-1.58 1.68-2.33 2.58l.26-.24a47.25 47.25 0 0 1 11-7.8 51.25 51.25 0 0 1 7.38-3.44l4.62-4.73a51.26 51.26 0 0 0-7.38 3.44z" fill="#509FCE" fill-rule="nonzero"/><path d="M188.67 311.23c.2-.22.41-.43.6-.66-.19.23-.45.44-.6.66zM93.31 252.01a94.11 94.11 0 0 0-4.34 4.12c1.4-1.42 2.85-2.8 4.34-4.12z"/><path d="M200.35 315.92a55.61 55.61 0 0 1-8.05 5.45 25.6 25.6 0 0 1-2.37 1.11l-5.83-6.54-.19-.21-4.62 4.73 6 6.77a45.25 45.25 0 0 0 10.42-6.57 53.45 53.45 0 0 0 5.26-4.71l4.62-4.73a53.45 53.45 0 0 1-5.24 4.7zM187.53 312.47c.39-.4.76-.82 1.14-1.24.2-.22.41-.43.6-.66a85.88 85.88 0 0 0 1.63-2 32.24 32.24 0 0 0 5.07-9 49.15 49.15 0 0 0 3.22-10.25 42.08 42.08 0 0 0 1-10.86 51.43 51.43 0 0 0-3.12-16.41 44.62 44.62 0 0 0-9.25-14.92 48.76 48.76 0 0 0-16.35-10.76c-6.57-2.75-14.63-3.94-24.25-3.89a84.86 84.86 0 0 0-29.66 5.44 77.73 77.73 0 0 0-24.2 14.06 94.11 94.11 0 0 0-4.34 4.12c-1 1-2 2-2.9 3.09.87-.83 1.71-1.68 2.61-2.48a77.73 77.73 0 0 1 24.2-14.06 84.87 84.87 0 0 1 29.66-5.44c9.62-.05 17.68 1.14 24.25 3.89a48.76 48.76 0 0 1 16.35 10.76 44.63 44.63 0 0 1 9.31 14.84 51.43 51.43 0 0 1 3.08 16.43 42.08 42.08 0 0 1-1 10.86 49.16 49.16 0 0 1-3.22 10.25 32.24 32.24 0 0 1-5.07 9c-.36.47-.73.92-1.11 1.37.79-.68 1.58-1.39 2.35-2.18v.04z" fill="#509FCE" fill-rule="nonzero"/><path d="M189.27 310.57a85.88 85.88 0 0 0 1.63-2 41.86 41.86 0 0 1-1.63 2zM188.67 311.23c-.38.42-.75.84-1.14 1.24.41-.42.77-.84 1.14-1.24z" fill="#0B527D" fill-rule="nonzero"/><path d="M195.97 299.52a32.24 32.24 0 0 1-5.07 9 85.88 85.88 0 0 1-1.63 2c-.2.23-.4.44-.6.66-.37.41-.73.82-1.1 1.2-.77.78-1.56 1.5-2.35 2.18-.43.36-.85.73-1.28 1.06l.19.21 5.81 6.53a45.24 45.24 0 0 0 10.42-6.57 54.32 54.32 0 0 0 10.91-11.53 73.57 73.57 0 0 0 8.68-15.53 47.2 47.2 0 0 0 3.33-19.25 42.25 42.25 0 0 0-16.18-32.35c-5.37-4.61-12.25-8-20.69-10.74-8.44-2.74-18.36-3.92-30.15-3.86a118.38 118.38 0 0 0-39.22 7 109.12 109.12 0 0 0-32.49 19.09 84.22 84.22 0 0 0-22 28.95 82.29 82.29 0 0 0-7.6 37.25c.21 10.23 2.24 18.9 6.43 26.3a75.8 75.8 0 0 0 16.21 19.76 138 138 0 0 0 22.64 15.37c8.46 4.61 16.94 9.23 26 13.2 9.06 3.97 17.53 8.27 26 12.56a133.91 133.91 0 0 1 22.59 14.19 71.55 71.55 0 0 1 16.17 17.57c4.15 6.49 6.19 14.24 6.36 22.92a73.09 73.09 0 0 1-1 10.86 65.13 65.13 0 0 1-3.8 11.78 42.49 42.49 0 0 1-7.51 11.51l-4.33 4.44a49.5 49.5 0 0 1-7.87 5.57 82.26 82.26 0 0 1-18.16 6.9 94 94 0 0 1-24.43 2.92 59.22 59.22 0 0 1-20.52-3.29 50.87 50.87 0 0 1-15.07-8.6 36.93 36.93 0 0 1-9.22-12 30.59 30.59 0 0 1-3.42-13.65c-.15-7.13 1-13 4-18a41.062 41.062 0 0 1 7.43-10.39c.82-.83 1.66-1.63 2.55-2.39a47.25 47.25 0 0 1 11-7.8 51.26 51.26 0 0 1 7.38-3.44l-2-8.67a94.66 94.66 0 0 0-9.88 2.84 111.16 111.16 0 0 0-11.37 4.7 62.28 62.28 0 0 0-11.33 6.89 44.7 44.7 0 0 0-9.72 9.35 38 38 0 0 0-6.96 12.11 39.66 39.66 0 0 0-2.5 15.2 39.23 39.23 0 0 0 3.41 14.88 41.69 41.69 0 0 0 11.47 14.81c5.35 4.63 12.87 8.31 21.94 11.35 9.07 3.04 20.54 4.55 34.5 4.47 12.7-.07 24.15-2 34.92-6.4 10.77-4.4 20-9.7 27.88-16.57a73.75 73.75 0 0 0 18.42-23.35 59.8 59.8 0 0 0-.47-54.25 76.49 76.49 0 0 0-16.87-20.68 133.8 133.8 0 0 0-23.6-16.66c-8.78-4.91-17.86-9.52-27-14.11s-18.17-9.2-26.94-13.81a172.76 172.76 0 0 1-23.57-15.36 73.22 73.22 0 0 1-16.81-18.53 44.65 44.65 0 0 1-6.62-23.19 51.22 51.22 0 0 1 5.7-23.9 65.61 65.61 0 0 1 9.1-13c.93-1.05 1.9-2.08 2.9-3.09a84.68 84.68 0 0 1 4.34-4.12 77.73 77.73 0 0 1 24.2-14.06 84.86 84.86 0 0 1 29.66-5.44c9.62-.05 17.68 1.14 24.25 3.89a48.76 48.76 0 0 1 16.39 10.72 44.62 44.62 0 0 1 9.31 14.84 51.43 51.43 0 0 1 3.12 16.41 42.08 42.08 0 0 1-1 10.86 49.15 49.15 0 0 1-3.28 10.28zM451.36 242.66l.13 6.19-182.92.98-.12-6.19z" fill="#0B527D" fill-rule="nonzero"/><path fill="#53A3D2" fill-rule="nonzero" d="M268.57 249.83l-.12-6.19-4.62 4.73.12 6.19 182.92-.98 4.62-4.73z"/><path d="M76.35 158.2c0 .27-.1.53-.14.79.04-.27.1-.52.14-.79zM75.97 160.13c-.06.27-.15.52-.22.78.07-.21.15-.46.22-.78zM74.73 163.68c-.12.24-.24.47-.37.7.13-.25.26-.46.37-.7zM76.56 156.05c0 .25 0 .48-.07.72.02-.24.05-.47.07-.72zM73.88 165.21c-.14.22-.29.43-.44.64.15-.21.3-.42.44-.64zM71.42 159.05l-2-97.67c-.13-6.6-2.17-11.23-5.73-14.31a18.48 18.48 0 0 0-12.5-4.59 17.45 17.45 0 0 0-9.81 2.79 20.57 20.57 0 0 0-2.44 11l2 97.67c.13 6.58 2.17 11.23 5.71 14.31a18.66 18.66 0 0 0 12.5 4.57 18.25 18.25 0 0 0 9.87-2.84 16.68 16.68 0 0 0 1.8-4.68c.455-2.05.657-4.15.6-6.25zM75.13 162.75c.1-.25.2-.49.3-.75-.09.26-.2.51-.3.75zM72.88 166.59c-.16.2-.33.39-.5.58.17-.19.34-.38.5-.58z"/><path d="M75.75 160.96c.07-.26.16-.51.22-.78s.16-.79.23-1.19c.07-.4.1-.52.14-.79.07-.46.1-.94.14-1.43 0-.24.05-.47.07-.72 0-.74.06-1.51 0-2.31l-2-97.67c-.13-6.6-2.17-11.23-5.73-14.31a18.48 18.48 0 0 0-12.45-4.63 17.37 17.37 0 0 0-12.31 4.73 14.36 14.36 0 0 0-2.68 3.37 17.45 17.45 0 0 1 9.81-2.79 18.48 18.48 0 0 1 12.5 4.59c3.56 3.09 5.6 7.71 5.73 14.31l2 97.67a25.63 25.63 0 0 1-.58 6.26 16.68 16.68 0 0 1-1.83 4.68 18.18 18.18 0 0 0 2.44-1.82c.33-.3.62-.62.92-.94.3-.32.34-.38.5-.58a20.149 20.149 0 0 0 1-1.38c.14-.22.33-.55.48-.83.15-.28.25-.46.37-.7.12-.24.27-.61.4-.93.13-.32.2-.49.3-.75.1-.26.23-.7.33-1.06z" fill="#509FCE" fill-rule="nonzero"/><path d="M73.44 165.85c-.18.25-.37.5-.56.74.19-.24.38-.46.56-.74zM75.13 162.75c-.13.32-.26.63-.4.93.15-.3.28-.61.4-.93zM74.36 164.38c-.16.28-.31.56-.48.83.17-.27.33-.55.48-.83zM76.49 156.77c0 .48-.08 1-.14 1.43.06-.46.1-.95.14-1.43zM75.75 160.96c-.1.35-.2.71-.32 1 .12-.29.22-.64.32-1z" fill="#0B527D" fill-rule="nonzero"/><path d="M102.57 153.6l-2-97.67a53.26 53.26 0 0 0-4.28-19.8 39.36 39.36 0 0 0-10.37-14.24 42.6 42.6 0 0 0-14.52-8.44 44.44 44.44 0 0 0-16-2.63 45.21 45.21 0 0 0-15.82 2.8 40.75 40.75 0 0 0-14.17 8.6 48.65 48.65 0 0 0-9.78 14.4c-2.6 5.84-3.63 12.42-3.48 19.8l2 97.67c.15 7.35 1.45 13.95 4.29 19.74a40.8 40.8 0 0 0 10.38 13.88 42 42 0 0 0 14.53 8.42 44.39 44.39 0 0 0 15.93 2.63 45.23 45.23 0 0 0 15.84-2.8 40.6 40.6 0 0 0 14.17-8.6 42.2 42.2 0 0 0 9.79-14c2.62-5.41 3.65-12.01 3.49-19.76zm-26 2.45c0 .25 0 .48-.07.72 0 .48-.08 1-.14 1.43 0 .27-.1.53-.14.79-.04.26-.14.81-.23 1.19-.09.38-.15.52-.22.78s-.2.71-.32 1c-.12.29-.19.5-.3.75-.11.25-.26.63-.4.93-.14.3-.24.47-.37.7-.13.23-.31.56-.48.83-.17.27-.29.43-.44.64-.15.21-.37.5-.56.74-.19.24-.33.39-.5.58-.17.19-.59.65-.92.94a18.21 18.21 0 0 1-12.31 4.7 18.66 18.66 0 0 1-12.5-4.57c-3.54-3.09-5.57-7.74-5.71-14.31l-2-97.67a20.57 20.57 0 0 1 2.44-11 14.36 14.36 0 0 1 2.68-3.37 17.37 17.37 0 0 1 12.29-4.72 18.48 18.48 0 0 1 12.5 4.59c3.56 3.09 5.6 7.71 5.73 14.31l2 97.67c.01.84 0 1.61-.04 2.35h.01z" fill="#0B527D" fill-rule="nonzero"/><path d="M76.6 153.74v2.31c0-.74.01-1.51 0-2.31zM76.2 158.99c-.07.4-.14.81-.23 1.19.09-.38.16-.79.23-1.19z" fill="#0B527D" fill-rule="nonzero"/><path d="M89.3 187.39a40.6 40.6 0 0 1-14.17 8.6 45.23 45.23 0 0 1-15.84 2.8 44.39 44.39 0 0 1-15.94-2.66 42 42 0 0 1-14.53-8.42 40.8 40.8 0 0 1-10.36-13.9c-2.84-5.79-4.14-12.38-4.29-19.74l-2-97.67c-.15-7.38.88-14 3.48-19.8a48.65 48.65 0 0 1 9.78-14.4l-5.18 5.3a48.65 48.65 0 0 0-9.78 14.4c-2.58 5.85-3.65 12.44-3.46 19.81l2 97.67c.15 7.35 1.45 13.95 4.29 19.74a40.8 40.8 0 0 0 10.36 13.9 42 42 0 0 0 14.52 8.44 44.39 44.39 0 0 0 15.93 2.67 45.23 45.23 0 0 0 15.84-2.8 40.6 40.6 0 0 0 14.17-8.6c.46-.427.913-.867 1.36-1.32l5.18-5.3c-.447.427-.9.853-1.36 1.28z" fill="#509FCE" fill-rule="nonzero"/><path fill="#53A3D2" fill-rule="nonzero" d="M204.32 11.95l-5.18 5.3-17 62.08 1.98 6.37z"/><path fill="#0B527D" fill-rule="nonzero" d="M232.23 11.8l-27.91.15-20.2 73.75-1.98-6.37-20.84-67.15-27.91.15 38.22 106.4 1.61 78.28 26.36-.14-1.6-78.28z"/><path fill="#53A3D2" fill-rule="nonzero" d="M173.22 197.01l-1.61-78.28-38.22-106.4-5.18 5.3 38.23 106.41 1.59 78.27 26.37-.14 5.18-5.3z"/><path d="M332.19 193.05c-5.77 2.75-13.09 4.34-21.64 4.39a44.59 44.59 0 0 1-17.89-3.4 46.26 46.26 0 0 1-14.54-9.22 45.29 45.29 0 0 1-13.43-31.31l-.2-9.71-5.18 5.3.2 9.71a45.29 45.29 0 0 0 13.44 31.32 46.26 46.26 0 0 0 14.54 9.22 44.59 44.59 0 0 0 17.89 3.4c8.54 0 15.87-1.64 21.64-4.39a34.69 34.69 0 0 0 10.8-7.47l5.18-5.3a34.69 34.69 0 0 1-10.81 7.46zM327.11 58.58a30.62 30.62 0 0 0-4.6-15.85c-2.81-4.26-7.88-6.56-14.48-6.52a20 20 0 0 0-8.87 2c-.6.41-1.17.82-1.7 1.24-.17.13-.32.28-.48.41-.36.3-.71.6-1 .92a10.45 10.45 0 0 0-2 2.8l.09-.06a20 20 0 0 1 8.87-2c6.6 0 11.68 2.27 14.48 6.52a30.62 30.62 0 0 1 4.6 15.85l.12 5.82 26.68-.14 5.18-5.3-26.75.14-.14-5.83z" fill="#509FCE" fill-rule="nonzero"/><path d="M325 164.85c-.13.16-.27.31-.41.47.13-.19.23-.31.41-.47z"/><path d="M324.59 165.31c.14-.16.28-.3.41-.47.4-.51.79-1 1.14-1.59a24.54 24.54 0 0 0 2.16-8.53c.254-3.748.308-7.506.16-11.26a109.4 109.4 0 0 0-.63-12c-.45-3.08-1.28-5.8-2.48-7.34a13.69 13.69 0 0 0-4.76-4.63c-1.94-1.15-4.68-2.28-7.82-3.82l-19.14-7.66c-11.36-4.58-19.23-10.75-23.27-18.47-4.04-7.72-6.16-17.42-6.4-29a65.31 65.31 0 0 1 2.31-19.77 45.37 45.37 0 0 1 8.19-16.33c.69-.85 1.41-1.64 2.15-2.42l.25-.29-5.18 5.3a38.917 38.917 0 0 0-2.4 2.7 45.37 45.37 0 0 0-8.19 16.33 65.32 65.32 0 0 0-2.27 19.72c.24 11.627 2.373 21.293 6.4 29 4 7.72 11.91 13.89 23.27 18.47l19.14 7.66c3.14 1.54 5.88 2.66 7.82 3.82a13.69 13.69 0 0 1 4.76 4.63c1.2 1.55 2 4.26 2.48 7.34.43 3.985.64 7.991.63 12a105.32 105.32 0 0 1-.16 11.26 24.75 24.75 0 0 1-2.05 8.28 13.88 13.88 0 0 0 3.48-2.93z" fill="#509FCE" fill-rule="nonzero"/><path d="M276.6 21.96c-.74.77-1.46 1.57-2.15 2.42.69-.86 1.37-1.65 2.15-2.42zM326.14 163.25c-.36.56-.74 1.09-1.14 1.59.4-.5.82-1.03 1.14-1.59z" fill="#0B527D" fill-rule="nonzero"/><path d="M354.05 124.73a39.43 39.43 0 0 0-4.17-13.93 37.3 37.3 0 0 0-8.73-10.42 70.8 70.8 0 0 0-14.5-7.67l-20.34-8c-3.5-1.53-6.25-2.68-8.22-4.2a13.69 13.69 0 0 1-4.76-4.63 17.08 17.08 0 0 1-2.05-6.59 68.43 68.43 0 0 1-.58-9.29 63.19 63.19 0 0 1 .59-8.91 23.92 23.92 0 0 1 2.53-7.43l.06-.1a10.45 10.45 0 0 1 2-2.8c.32-.32.68-.62 1-.92.16-.13.31-.28.48-.41.54-.42 1.11-.83 1.7-1.24a20 20 0 0 1 8.87-2c6.6 0 11.68 2.27 14.48 6.52a30.62 30.62 0 0 1 4.6 15.85l.12 5.82 26.75-.14-.28-13.57a42.49 42.49 0 0 0-3.42-15.1A43.18 43.18 0 0 0 341 22.44a46.51 46.51 0 0 0-14.16-9.61 48 48 0 0 0-18.3-3.4c-7.74 0-14.32 1.24-20.07 4a40 40 0 0 0-12 8.51c-.74.77-1.46 1.57-2.15 2.42a45.37 45.37 0 0 0-8.19 16.33 65.31 65.31 0 0 0-2.31 19.77c.24 11.627 2.373 21.293 6.4 29 4 7.72 11.91 13.89 23.27 18.47l19.14 7.66c3.14 1.54 5.88 2.66 7.82 3.82a13.69 13.69 0 0 1 4.76 4.63c1.2 1.55 2 4.26 2.48 7.34.43 3.985.64 7.991.63 12a105.32 105.32 0 0 1-.16 11.26 24.54 24.54 0 0 1-2.16 8.53c-.36.56-.74 1.09-1.14 1.59-.13.16-.27.31-.41.47a13.88 13.88 0 0 1-3.52 3c-.22.13-.42.28-.64.39-2.28 1.18-5.76 2-10.42 2-6.58 0-11.67-1.88-14.46-5.72a23.69 23.69 0 0 1-4.52-13.16l-.17-8.15-26.36.14.2 9.71a45.29 45.29 0 0 0 13.43 31.31 46.26 46.26 0 0 0 14.54 9.22 44.59 44.59 0 0 0 17.89 3.4c8.54 0 15.87-1.64 21.64-4.39a34.09 34.09 0 0 0 14.09-11.31 45.11 45.11 0 0 0 7.42-17.08 95.07 95.07 0 0 0 1.89-21.71 127.31 127.31 0 0 0-1.41-18.15z" fill="#0B527D" fill-rule="nonzero"/><path fill="#53A3D2" fill-rule="nonzero" d="M473.54 35.31l-30.63.17.11 5.27 25.34-.13z"/><path fill="#0B527D" fill-rule="nonzero" d="M442.91 35.48l30.63-.17-.5-24.8-87.61.47.51 24.8 30.61-.16 3.27 160.07 26.36-.14-3.16-154.8z"/><path fill="#53A3D2" fill-rule="nonzero" d="M419.82 195.69l-3.27-160.07-30.61.16-.51-24.8-5.18 5.3.51 24.81 30.61-.17 3.27 160.07 26.36-.14 5.18-5.3zM544.05 39.82l47.03-.25 5.17-5.3-52.31.28zM545.67 118.9l40.44-.22 5.18-5.3-45.73.24z"/><path fill="#0B527D" fill-rule="nonzero" d="M598.98 167.59l-52.31.28-1-48.97-.11-5.28 45.73-.24-.5-24.81-45.74.25-1-49-.11-5.27 52.31-.28-.5-24.81-79.07.43 3.78 184.48 79.06-.42z"/><path fill="#53A3D2" fill-rule="nonzero" d="M520.46 194.37L516.68 9.89l-5.18 5.3 3.78 184.48 79.06-.42 5.18-5.3zM643.32 194.1L639.54 9.23l-5.18 5.3 3.78 184.87 26.36-.14 5.18-5.3z"/><path d="M702.02 50.38a20.4 20.4 0 0 0-3.29-8.89 14.63 14.63 0 0 0-7.08-5.4 33.35 33.35 0 0 0-11.67-1.88l-14 .07.11 5.27h8.67a33.35 33.35 0 0 1 11.67 1.88 14.63 14.63 0 0 1 7.08 5.4 20.4 20.4 0 0 1 3.31 8.85 111.77 111.77 0 0 1 1 12.4 111.49 111.49 0 0 1-.52 12.41c-.67 3.3-1.37 6.25-2.73 8.54a13.24 13.24 0 0 0 3.19-2.4c.323-.337.624-.694.9-1.07l.18-.25a8.89 8.89 0 0 0 .71-1.2c1.51-2.34 2.22-5.45 2.92-8.92.404-4.124.577-8.267.52-12.41a111.77 111.77 0 0 0-.97-12.4z" fill="#509FCE" fill-rule="nonzero"/><path d="M714.48 104.79c.5-.41 1-.81 1.48-1.24-.48.42-.98.83-1.48 1.24zM703.05 62.78a111.77 111.77 0 0 0-1-12.4 20.4 20.4 0 0 0-3.29-8.89 14.63 14.63 0 0 0-7.08-5.4 33.35 33.35 0 0 0-11.67-1.88l-14 .07.11 5.27 1.06 52.08 15.1-.08a29.19 29.19 0 0 0 11.22-2c.38-.17.74-.35 1.1-.55a13.24 13.24 0 0 0 3.19-2.4c.323-.337.624-.694.9-1.07l.18-.25a8.89 8.89 0 0 0 .71-1.2c1.51-2.34 2.22-5.45 2.92-8.92.413-4.113.596-8.246.55-12.38z"/><path d="M714.48 104.79c-.33.27-.64.54-1 .8l-.2.16c-.51.39-1.07.75-1.61 1.12-.3.21-.58.42-.89.62-.93.61-1.9 1.2-2.92 1.76l.56 1.54a39.87 39.87 0 0 0 4.26-3.76l5.18-5.3c-.3.31-.63.6-.95.9-.32.3-.63.61-1 .91-.37.3-.93.84-1.43 1.25z" fill="#509FCE" fill-rule="nonzero"/><path d="M713.49 105.59c.34-.26.66-.53 1-.8-.34.26-.67.54-1 .8z" fill="#0B527D" fill-rule="nonzero"/><path d="M667.2 91.64l15.1-.08a29.19 29.19 0 0 0 11.22-2c.38-.17.74-.35 1.1-.55a13.24 13.24 0 0 0 3.19-2.4c.323-.337.624-.694.9-1.07l.18-.25a8.89 8.89 0 0 0 .71-1.2c1.51-2.34 2.22-5.45 2.92-8.92.404-4.124.577-8.267.52-12.41a111.77 111.77 0 0 0-1-12.4 20.4 20.4 0 0 0-3.29-8.89 14.63 14.63 0 0 0-7.08-5.4A33.35 33.35 0 0 0 680 34.19l-14 .07.11 5.27 1.09 52.11z"/><path fill="#0B527D" fill-rule="nonzero" d="M710.37 193.74l-26.43-78.92-15.87.09.1 5.27 10.59-.05 26.43 78.91 27.92-.15 5.17-5.3z"/><path d="M708.42 110.8l-.56-1.54c1-.56 2-1.15 2.92-1.76.31-.2.59-.42.89-.62.61-.42 1.23-.84 1.81-1.28.34-.26.66-.53 1-.8.5-.41 1-.81 1.48-1.24.48-.43.64-.6 1-.91a36.44 36.44 0 0 0 8.41-12.07c3.34-7.78 4.71-16.7 4.49-27.55-.74-36-17-54.18-48-54l-42.24.23 3.7 184.87 26.36-.14-1.51-73.78-.11-5.27 15.88-.09 26.43 78.92 27.92-.15-29.87-82.82zm-5.89-35.62c-.71 3.48-1.42 6.59-2.92 8.92a8.89 8.89 0 0 1-.71 1.2l-.18.25a10.63 10.63 0 0 1-.9 1.07 13.24 13.24 0 0 1-3.19 2.4c-.36.2-.72.38-1.1.55a29.19 29.19 0 0 1-11.22 2l-15.1.08-1.06-52.08-.11-5.27 14-.07a33.35 33.35 0 0 1 11.61 1.9 14.63 14.63 0 0 1 7.08 5.4 20.4 20.4 0 0 1 3.29 8.89 111.77 111.77 0 0 1 1 12.4 111.49 111.49 0 0 1-.49 12.37v-.01z" fill="#0B527D" fill-rule="nonzero"/><path d="M716.91 102.64c-.32.3-.63.61-1 .91.38-.3.69-.61 1-.91z" fill="#0B527D" fill-rule="nonzero"/></g></svg>